<svg xmlns="http://www.w3.org/2000/svg" width="54.52" height="42.86" viewBox="0 0 54.52 42.86"><defs><style>.cls-1{fill:#5a6b56;}.cls-2{fill:#7d9e47;}</style></defs><title>reform</title><g id="レイヤー_2" data-name="レイヤー 2"><g id="レイヤー_1-2" data-name="レイヤー 1"><path class="cls-1" d="M.05,42.73a.17.17,0,0,1,0-.12V37.77a.17.17,0,0,1,.05-.13.21.21,0,0,1,.13,0H.87a.19.19,0,0,1,.13,0,.17.17,0,0,1,.05.13V41.9H3.4a.21.21,0,0,1,.19.19v.52a.16.16,0,0,1-.06.13.17.17,0,0,1-.13,0H.18A.18.18,0,0,1,.05,42.73Z"/><path class="cls-1" d="M5.1,42.38A1.92,1.92,0,0,1,4.59,41v-.37a1.93,1.93,0,0,1,.52-1.33,1.79,1.79,0,0,1,1.31-.48,1.71,1.71,0,0,1,1.35.54,2,2,0,0,1,.48,1.42V41a.17.17,0,0,1-.05.12.18.18,0,0,1-.14.06H5.6v.06a1.15,1.15,0,0,0,.22.68.7.7,0,0,0,.59.28.84.84,0,0,0,.7-.34l.11-.11.12,0H8a.25.25,0,0,1,.12,0,.14.14,0,0,1,.05.1.71.71,0,0,1-.22.42,1.77,1.77,0,0,1-.6.42,2.17,2.17,0,0,1-.91.18A1.82,1.82,0,0,1,5.1,42.38Zm2.14-1.86v0A1.08,1.08,0,0,0,7,39.79a.83.83,0,0,0-1.21,0,1.13,1.13,0,0,0-.21.71v0Z"/><path class="cls-1" d="M10.35,42.43a1.41,1.41,0,0,1-.34-1V39.71H9.42a.17.17,0,0,1-.12-.05.18.18,0,0,1-.06-.13V39.1A.14.14,0,0,1,9.3,39a.13.13,0,0,1,.12,0H10V37.69a.17.17,0,0,1,.18-.18h.6a.19.19,0,0,1,.13.05.21.21,0,0,1,.05.13v1.24h.93A.16.16,0,0,1,12,39a.17.17,0,0,1,.05.13v.43a.15.15,0,0,1-.05.13.15.15,0,0,1-.12.05H11v1.61a.83.83,0,0,0,.11.49.41.41,0,0,0,.37.16H12a.17.17,0,0,1,.18.18v.46a.17.17,0,0,1-.05.12.15.15,0,0,1-.13.06h-.6A1.31,1.31,0,0,1,10.35,42.43Z"/><path class="cls-1" d="M13.3,39.13a.12.12,0,0,1,0-.12l.2-1.26a.33.33,0,0,1,.07-.17.24.24,0,0,1,.17-.07h.68a.12.12,0,0,1,.09.05.1.1,0,0,1,0,.09.2.2,0,0,1,0,.1L14,39a.85.85,0,0,1-.1.14.25.25,0,0,1-.15.05H13.4A.12.12,0,0,1,13.3,39.13Z"/><path class="cls-1" d="M16.09,42.69a1.46,1.46,0,0,1-.56-.39.67.67,0,0,1-.18-.39.13.13,0,0,1,.05-.12.16.16,0,0,1,.12,0h.58a.13.13,0,0,1,.12,0l.15.13a1.17,1.17,0,0,0,.3.19,1.12,1.12,0,0,0,.38.07.91.91,0,0,0,.49-.12.37.37,0,0,0,.19-.33.39.39,0,0,0-.08-.25.68.68,0,0,0-.31-.18,6.46,6.46,0,0,0-.66-.16,2.11,2.11,0,0,1-.94-.41,1,1,0,0,1-.3-.73,1,1,0,0,1,.18-.56,1.28,1.28,0,0,1,.53-.43,2,2,0,0,1,.85-.17,2.1,2.1,0,0,1,.86.16,1.57,1.57,0,0,1,.55.38.63.63,0,0,1,.19.39.16.16,0,0,1-.05.11.13.13,0,0,1-.11,0h-.55a.2.2,0,0,1-.13,0l-.16-.14a.87.87,0,0,0-.26-.16,1,1,0,0,0-.35-.06.69.69,0,0,0-.43.12.37.37,0,0,0-.15.31.35.35,0,0,0,.07.23.81.81,0,0,0,.29.17,4.37,4.37,0,0,0,.65.16,2.11,2.11,0,0,1,1,.44,1,1,0,0,1,.31.73,1,1,0,0,1-.45.84,2.15,2.15,0,0,1-1.27.33A2.17,2.17,0,0,1,16.09,42.69Z"/><path class="cls-1" d="M22.54,42.73a.17.17,0,0,1-.05-.12V37.78a.22.22,0,0,1,.05-.14.17.17,0,0,1,.13,0h1.92A2.18,2.18,0,0,1,26,38a1.46,1.46,0,0,1,.52,1.21,1.57,1.57,0,0,1-.26.91,1.51,1.51,0,0,1-.74.53l1.09,1.89a.31.31,0,0,1,0,.08.14.14,0,0,1-.05.11.16.16,0,0,1-.11,0h-.67a.24.24,0,0,1-.18-.06.42.42,0,0,1-.12-.14l-1-1.76h-1v1.78a.13.13,0,0,1-.05.12.15.15,0,0,1-.13.06h-.67A.18.18,0,0,1,22.54,42.73Zm2-2.74a1,1,0,0,0,.67-.2.75.75,0,0,0,.23-.58.78.78,0,0,0-.23-.59.94.94,0,0,0-.67-.21H23.52V40Z"/><path class="cls-1" d="M28.13,42.73a.17.17,0,0,1-.05-.12V37.78a.22.22,0,0,1,.05-.14.17.17,0,0,1,.13,0h3.27a.19.19,0,0,1,.13,0,.22.22,0,0,1,.05.14v.48a.17.17,0,0,1-.05.13.15.15,0,0,1-.13,0H29.08v1.32h2.28a.17.17,0,0,1,.19.18v.46a.16.16,0,0,1-.19.17H29.08v1.36h2.51a.21.21,0,0,1,.13,0,.22.22,0,0,1,.05.14v.49a.19.19,0,0,1-.05.13.21.21,0,0,1-.13,0H28.26A.18.18,0,0,1,28.13,42.73Z"/><path class="cls-1" d="M33.35,42.73a.14.14,0,0,1-.06-.12V37.78a.22.22,0,0,1,.05-.14.19.19,0,0,1,.13,0h3.22a.17.17,0,0,1,.19.19v.51a.17.17,0,0,1-.19.18H34.31v1.41h2.23a.18.18,0,0,1,.14.06.17.17,0,0,1,0,.13v.52a.19.19,0,0,1,0,.13.22.22,0,0,1-.14.05H34.31v1.84a.19.19,0,0,1-.05.13.22.22,0,0,1-.14,0h-.65A.14.14,0,0,1,33.35,42.73Z"/><path class="cls-1" d="M38.74,42.35a2,2,0,0,1-.6-1.52c0-.15,0-.36,0-.63s0-.5,0-.64A2,2,0,0,1,38.75,38a2.56,2.56,0,0,1,3.12,0,2,2,0,0,1,.62,1.52c0,.28,0,.5,0,.64s0,.34,0,.63a2.07,2.07,0,0,1-.61,1.52,2.67,2.67,0,0,1-3.14,0Zm2.36-.64a1.31,1.31,0,0,0,.32-.92c0-.3,0-.5,0-.6s0-.32,0-.6a1.31,1.31,0,0,0-.32-.92,1,1,0,0,0-.79-.3,1.06,1.06,0,0,0-.79.3,1.35,1.35,0,0,0-.32.92v1.2a1.35,1.35,0,0,0,.32.92,1.19,1.19,0,0,0,1.58,0Z"/><path class="cls-1" d="M44.12,42.73a.13.13,0,0,1,0-.12V37.78a.17.17,0,0,1,.18-.19h1.92a2.18,2.18,0,0,1,1.42.42,1.49,1.49,0,0,1,.52,1.21,1.51,1.51,0,0,1-.27.91,1.48,1.48,0,0,1-.73.53l1.09,1.89a.31.31,0,0,1,0,.08.14.14,0,0,1,0,.11.16.16,0,0,1-.11,0h-.67a.29.29,0,0,1-.19-.06.4.4,0,0,1-.11-.14l-1-1.76h-1v1.78a.17.17,0,0,1-.05.12.15.15,0,0,1-.13.06h-.67A.16.16,0,0,1,44.12,42.73Zm2-2.74a1,1,0,0,0,.67-.2.75.75,0,0,0,.22-.58.77.77,0,0,0-.22-.59,1,1,0,0,0-.67-.21h-1V40Z"/><path class="cls-1" d="M49.71,42.74a.15.15,0,0,1-.05-.13V37.78a.17.17,0,0,1,.05-.14.19.19,0,0,1,.13,0h.59a.23.23,0,0,1,.22.14l1.44,2.67,1.44-2.67a.25.25,0,0,1,.23-.14h.58a.21.21,0,0,1,.13,0,.22.22,0,0,1,.05.14v4.83a.19.19,0,0,1-.05.13.21.21,0,0,1-.13,0h-.63a.21.21,0,0,1-.18-.18V39.39l-1,2a.28.28,0,0,1-.25.16h-.3a.31.31,0,0,1-.26-.16l-1-2v3.22a.17.17,0,0,1,0,.12.18.18,0,0,1-.13.06h-.63A.19.19,0,0,1,49.71,42.74Z"/><path class="cls-2" d="M29.13,11.09a5.56,5.56,0,0,0-.9,3.48,5.51,5.51,0,0,0,3.12-1.8,5.49,5.49,0,0,0,.9-3.48A5.51,5.51,0,0,0,29.13,11.09Z"/><path class="cls-2" d="M28.57,19.26h0a9.29,9.29,0,0,0-1.65-5.43,9.63,9.63,0,0,0-5.54-3.22l-1.06-.18-.11,1.07a9.67,9.67,0,0,0,1.62,6.2,9.27,9.27,0,0,0,4.73,3v6.42H14.09V11.3l13.19-8L25.44,2.12l-13.36,8v19H28.57Zm-5.14-2.78a6.83,6.83,0,0,1-1.21-3.55A6.81,6.81,0,0,1,25.32,15a6.89,6.89,0,0,1,1.21,3.56A6.81,6.81,0,0,1,23.43,16.48Z"/><polygon class="cls-1" points="28.96 0 27.02 1.16 27.02 1.17 41.03 9.87 41.03 30.89 18.15 30.89 18.15 32.9 43.04 32.9 43.04 8.76 28.96 0"/></g></g></svg>